<svg xmlns="http://www.w3.org/2000/svg" xmlns:xlink="http://www.w3.org/1999/xlink" xmlns:lucid="lucid" width="683" height="449.47"><g transform="translate(-1719 -515)" lucid:page-tab-id="0_0"><path d="M1720 516h347v111.9h-347z" fill="#f2f3f5"/><path d="M2067 516h334v111.9h-334z" fill="#f7f4e4"/><path d="M1720 627.9h347v83.9h-347z" fill="#cfe4ff"/><path d="M2067 627.9h334v83.9h-334z" fill="#fff"/><path d="M1720 711.8h347v83.88h-347z" fill="#f4d9ff"/><path d="M2067 711.8h334v83.88h-334z" fill="#fff"/><path d="M1720 795.68h347v83.9h-347z" fill="#ffdda6"/><path d="M2067 795.68h334v83.9h-334z" fill="#fff"/><path d="M1720 879.58h347v83.9h-347z" fill="#ffd9d9"/><path d="M2067 879.58h334v83.9h-334z" fill="#fff"/><path d="M1720 516v111.9M1720 516h347M2067 516v111.9M2401 516v111.9M2067 516h334M1720 627.9v83.9M1720 627.9h347M2067 627.9v83.9M2401 627.9v83.9M2067 627.9h334M1720 711.8v83.88M1720 711.8h347M2067 711.8v83.88M2401 711.8v83.88M2067 711.8h334M1720 795.68v83.9M1720 795.68h347M2067 795.68v83.9M2401 795.68v83.9M2067 795.68h334M1720 879.58v83.9M1720 879.58h347M1720 963.47h347M2067 879.58v83.9M2401 879.58v83.9M2067 879.58h334M2067 963.47h334" stroke="#ced4db" stroke-width="2" fill="none"/><use xlink:href="#a" transform="matrix(1,0,0,1,2072,521) translate(115.32573784722221 57.77625868055556)"/><use xlink:href="#b" transform="matrix(1,0,0,1,1725,632.8948873164521) translate(115.1579861111111 43.77625868055556)"/><use xlink:href="#c" transform="matrix(1,0,0,1,2072,632.8948873164521) translate(101.990234375 43.77625868055556)"/><use xlink:href="#d" transform="matrix(1,0,0,1,2072,632.8948873164521) translate(155.33224826388889 43.77625868055556)"/><use xlink:href="#e" transform="matrix(1,0,0,1,2072,632.8948873164521) translate(195.33875868055554 43.77625868055556)"/><use xlink:href="#f" transform="matrix(1,0,0,1,1725,716.7897746329043) translate(108.49023437499999 43.77625868055556)"/><use xlink:href="#g" transform="matrix(1,0,0,1,2072,716.7897746329043) translate(101.990234375 43.77625868055556)"/><use xlink:href="#h" transform="matrix(1,0,0,1,2072,716.7897746329043) translate(155.33224826388889 43.77625868055556)"/><use xlink:href="#e" transform="matrix(1,0,0,1,2072,716.7897746329043) translate(195.33875868055554 43.77625868055556)"/><use xlink:href="#i" transform="matrix(1,0,0,1,1725,800.6846619493563) translate(88.48697916666664 43.77625868055556)"/><g><use xlink:href="#c" transform="matrix(1,0,0,1,2072,800.6846619493563) translate(101.990234375 43.77625868055556)"/><use xlink:href="#d" transform="matrix(1,0,0,1,2072,800.6846619493563) translate(155.33224826388889 43.77625868055556)"/><use xlink:href="#e" transform="matrix(1,0,0,1,2072,800.6846619493563) translate(195.33875868055554 43.77625868055556)"/></g><g><use xlink:href="#j" transform="matrix(1,0,0,1,1725,884.5795492658085) translate(121.82573784722221 43.77625868055556)"/></g><g><use xlink:href="#c" transform="matrix(1,0,0,1,2072,884.5795492658085) translate(101.990234375 43.77625868055556)"/><use xlink:href="#d" transform="matrix(1,0,0,1,2072,884.5795492658085) translate(155.33224826388889 43.77625868055556)"/><use xlink:href="#k" transform="matrix(1,0,0,1,2072,884.5795492658085) translate(195.33875868055554 43.77625868055556)"/></g><defs><path d="M713 0H515L10-1349h201C345-955 498-579 615-168c116-411 269-787 402-1181h201" id="l"/><path d="M617-1102c355 0 481 238 477 599H322c5 222 84 388 301 388 144 0 244-59 284-166l158 45C1002-72 854 20 623 20c-342 0-490-220-490-568 0-346 151-554 484-554zm291 461c-18-192-90-328-289-328-194 0-287 128-295 328h584" id="m"/><path d="M631 20c-350 0-501-215-501-562 0-355 162-560 502-560 250 0 399 118 446 323l-192 14c-23-124-109-196-262-196-242 0-305 171-305 415 1 245 61 427 304 427 151 0 248-77 267-215l190 12C1039-107 883 20 631 20" id="n"/><path d="M682 16c-209 0-323-80-324-285v-671H190v-142h170l58-282h120v282h432v142H538v652c2 114 60 155 182 155 106 0 209-16 297-34v137C921-4 806 16 682 16" id="o"/><path d="M615-1102c343 0 484 203 482 560-1 347-147 562-488 562-336 0-475-219-479-562-4-349 156-560 485-560zm-8 989c240 0 301-180 301-429 0-245-55-427-290-427-236 0-299 181-299 427 0 243 61 429 288 429" id="p"/><path d="M839-1102c70 0 148 7 206 17v167c-112-18-268-36-363 15-129 69-208 203-208 395V0H294c-10-367 32-789-52-1082h171c21 75 41 161 48 250h5c67-152 152-270 373-270" id="q"/><path d="M873-819c-18-114-119-146-250-146-163 0-245 50-245 151 0 151 170 148 294 185 182 54 388 94 388 320 0 240-189 325-439 329-245 4-410-69-454-268l159-31c24 133 136 168 295 165 144-2 270-31 270-171 0-164-195-160-331-202-167-52-350-87-350-299 0-218 173-315 413-313 220 2 373 77 412 260" id="r"/><g id="a"><use transform="matrix(0.010850694444444444,0,0,0.010850694444444444,0,0)" xlink:href="#l"/><use transform="matrix(0.010850694444444444,0,0,0.010850694444444444,13.335503472222221,0)" xlink:href="#m"/><use transform="matrix(0.010850694444444444,0,0,0.010850694444444444,26.671006944444443,0)" xlink:href="#n"/><use transform="matrix(0.010850694444444444,0,0,0.010850694444444444,40.006510416666664,0)" xlink:href="#o"/><use transform="matrix(0.010850694444444444,0,0,0.010850694444444444,53.342013888888886,0)" xlink:href="#p"/><use transform="matrix(0.010850694444444444,0,0,0.010850694444444444,66.67751736111111,0)" xlink:href="#q"/><use transform="matrix(0.010850694444444444,0,0,0.010850694444444444,80.01302083333334,0)" xlink:href="#r"/></g><path d="M237 0v-1349h191v1193h672V0H237" id="s"/><path d="M706-1102c241 0 344 136 343 381V0H868v-695c1-168-57-273-220-268-190 6-283 138-283 336V0H185c-3-360 6-732-6-1082h170c4 54 7 126 8 185h3c63-121 164-204 346-205" id="t"/><path d="M1000-272c3 95 12 159 101 161 21 0 41-3 59-7V-6c-44 10-86 16-139 16-141 2-191-84-197-217h-6C748-76 648 20 446 20c-207 0-318-120-318-322 0-266 194-348 454-354l236-4c12-191-40-305-222-305-140 0-220 47-232 172l-188-17c33-204 181-292 423-292 255 0 401 118 401 364v466zm-683-27c0 109 63 184 175 182 166-3 259-96 306-217 24-65 20-120 20-200-232 7-501-28-501 235" id="u"/><path d="M865-914c-3-187-2-380-2-570h180v1261c0 76 1 155 6 223H877c-8-49-9-116-10-174h-5C801-44 708 26 530 26c-135 0-234-46-297-139s-95-232-95-419c0-377 131-566 392-566 176 0 271 63 335 184zm-286-51c-222 0-255 197-255 427 0 229 31 425 253 425 237 0 286-195 286-441 0-238-52-411-284-411" id="v"/><g id="b"><use transform="matrix(0.010850694444444444,0,0,0.010850694444444444,0,0)" xlink:href="#s"/><use transform="matrix(0.010850694444444444,0,0,0.010850694444444444,13.335503472222221,0)" xlink:href="#m"/><use transform="matrix(0.010850694444444444,0,0,0.010850694444444444,26.671006944444443,0)" xlink:href="#p"/><use transform="matrix(0.010850694444444444,0,0,0.010850694444444444,40.006510416666664,0)" xlink:href="#t"/><use transform="matrix(0.010850694444444444,0,0,0.010850694444444444,53.342013888888886,0)" xlink:href="#u"/><use transform="matrix(0.010850694444444444,0,0,0.010850694444444444,66.67751736111111,0)" xlink:href="#q"/><use transform="matrix(0.010850694444444444,0,0,0.010850694444444444,80.01302083333334,0)" xlink:href="#v"/><use transform="matrix(0.010850694444444444,0,0,0.010850694444444444,93.34852430555557,0)" xlink:href="#p"/></g><path d="M410 425v-1909h547v139H590V286h367v139H410" id="w"/><path d="M148-1120c216-7 379-89 463-229h166v1204h353V0H157v-145h439v-1021c-79 124-254 184-448 194v-148" id="x"/><path d="M259 363l169-662h265L382 363H259" id="y"/><g id="c"><use transform="matrix(0.010850694444444444,0,0,0.010850694444444444,0,0)" xlink:href="#w"/><use transform="matrix(0.010850694444444444,0,0,0.010850694444444444,13.335503472222221,0)" xlink:href="#x"/><use transform="matrix(0.010850694444444444,0,0,0.010850694444444444,26.671006944444443,0)" xlink:href="#y"/></g><g id="d"><use transform="matrix(0.010850694444444444,0,0,0.010850694444444444,0,0)" xlink:href="#x"/><use transform="matrix(0.010850694444444444,0,0,0.010850694444444444,13.335503472222221,0)" xlink:href="#y"/></g><path d="M270 425V286h367v-1631H270v-139h547V425H270" id="z"/><g id="e"><use transform="matrix(0.010850694444444444,0,0,0.010850694444444444,0,0)" xlink:href="#x"/><use transform="matrix(0.010850694444444444,0,0,0.010850694444444444,13.335503472222221,0)" xlink:href="#z"/></g><path d="M473-1349c438-1 655 221 652 661C1122-268 945-8 532 0H162v-1349h311zm42 1193c308-4 416-205 418-532 2-330-131-509-459-505H353v1037h162" id="A"/><path d="M736-142h380V0H134v-142h422v-1200H267v-142h469v1342" id="B"/><g id="f"><use transform="matrix(0.010850694444444444,0,0,0.010850694444444444,0,0)" xlink:href="#A"/><use transform="matrix(0.010850694444444444,0,0,0.010850694444444444,13.335503472222221,0)" xlink:href="#p"/><use transform="matrix(0.010850694444444444,0,0,0.010850694444444444,26.671006944444443,0)" xlink:href="#t"/><use transform="matrix(0.010850694444444444,0,0,0.010850694444444444,40.006510416666664,0)" xlink:href="#u"/><use transform="matrix(0.010850694444444444,0,0,0.010850694444444444,53.342013888888886,0)" xlink:href="#o"/><use transform="matrix(0.010850694444444444,0,0,0.010850694444444444,66.67751736111111,0)" xlink:href="#m"/><use transform="matrix(0.010850694444444444,0,0,0.010850694444444444,80.01302083333334,0)" xlink:href="#B"/><use transform="matrix(0.010850694444444444,0,0,0.010850694444444444,93.34852430555557,0)" xlink:href="#B"/><use transform="matrix(0.010850694444444444,0,0,0.010850694444444444,106.6840277777778,0)" xlink:href="#p"/></g><path d="M1065-1013c47 164 49 500-1 665C999-130 875 20 611 20c-377 0-484-300-487-695-2-245 41-425 141-551 77-98 191-144 352-144 261 0 386 140 448 357zM741-155c199-92 203-504 159-785-26-168-96-284-283-284-281 0-308 256-311 549-2 181 18 324 80 428 46 77 115 118 227 120 47 0 90-10 128-28zM496-555v-249h235v249H496" id="C"/><g id="g"><use transform="matrix(0.010850694444444444,0,0,0.010850694444444444,0,0)" xlink:href="#w"/><use transform="matrix(0.010850694444444444,0,0,0.010850694444444444,13.335503472222221,0)" xlink:href="#C"/><use transform="matrix(0.010850694444444444,0,0,0.010850694444444444,26.671006944444443,0)" xlink:href="#y"/></g><g id="h"><use transform="matrix(0.010850694444444444,0,0,0.010850694444444444,0,0)" xlink:href="#C"/><use transform="matrix(0.010850694444444444,0,0,0.010850694444444444,13.335503472222221,0)" xlink:href="#y"/></g><path d="M285-1169c8 382 2 780 4 1169H129v-1349h237c86 239 188 461 253 720 69-258 169-481 255-720h225V0H937c2-390-5-788 6-1169-75 255-170 488-259 729H547c-90-240-185-475-262-729" id="D"/><path d="M745-142h380V0H143v-142h422v-798H246v-142h499v940zM545-1292v-192h200v192H545" id="E"/><path d="M648-963c-190 6-283 138-283 336V0H185v-1484h181c-2 197 6 404-9 587h3c62-120 159-205 339-205 242 0 351 135 350 381V0H868v-695c1-168-57-273-220-268" id="F"/><path d="M1048-32c-2 300-135 456-433 456-222-1-358-88-400-267l184-25c22 99 100 157 222 156 184-2 248-125 248-315 0-64 3-133-2-194C807-100 706-13 524-12c-306 0-381-228-381-537 0-318 85-550 400-550 164 0 271 83 325 202h3c1-60 3-134 12-185h171c-13 339-4 702-6 1050zM585-145c210-8 284-178 284-406 0-192-52-331-177-392-33-16-69-22-104-22-223 2-259 184-259 414 0 229 31 415 256 406" id="G"/><g id="i"><use transform="matrix(0.010850694444444444,0,0,0.010850694444444444,0,0)" xlink:href="#D"/><use transform="matrix(0.010850694444444444,0,0,0.010850694444444444,13.335503472222221,0)" xlink:href="#E"/><use transform="matrix(0.010850694444444444,0,0,0.010850694444444444,26.671006944444443,0)" xlink:href="#n"/><use transform="matrix(0.010850694444444444,0,0,0.010850694444444444,40.006510416666664,0)" xlink:href="#F"/><use transform="matrix(0.010850694444444444,0,0,0.010850694444444444,53.342013888888886,0)" xlink:href="#m"/><use transform="matrix(0.010850694444444444,0,0,0.010850694444444444,66.67751736111111,0)" xlink:href="#B"/><use transform="matrix(0.010850694444444444,0,0,0.010850694444444444,80.01302083333334,0)" xlink:href="#u"/><use transform="matrix(0.010850694444444444,0,0,0.010850694444444444,93.34852430555557,0)" xlink:href="#t"/><use transform="matrix(0.010850694444444444,0,0,0.010850694444444444,106.6840277777778,0)" xlink:href="#G"/><use transform="matrix(0.010850694444444444,0,0,0.010850694444444444,120.01953125000003,0)" xlink:href="#m"/><use transform="matrix(0.010850694444444444,0,0,0.010850694444444444,133.35503472222226,0)" xlink:href="#B"/><use transform="matrix(0.010850694444444444,0,0,0.010850694444444444,146.69053819444449,0)" xlink:href="#p"/></g><path d="M1121-976c0 225-142 341-344 379L1177 0H957L591-575H353V0H162v-1349h482c281 3 477 100 477 373zM633-726c181-1 296-73 296-247 0-149-101-223-304-223H353v470h280" id="H"/><path d="M698-1104c312 3 392 244 392 558 0 315-82 566-392 566-169 0-277-65-331-184h-5c8 188 2 394 4 589H185V-858c0-76-1-156-6-224h175c6 52 9 120 10 178h4c58-122 150-202 330-200zm-49 991c225 0 255-203 255-433 0-225-32-419-253-419-236 0-285 192-285 441 0 237 53 411 283 411" id="I"/><g id="j"><use transform="matrix(0.010850694444444444,0,0,0.010850694444444444,0,0)" xlink:href="#H"/><use transform="matrix(0.010850694444444444,0,0,0.010850694444444444,13.335503472222221,0)" xlink:href="#u"/><use transform="matrix(0.010850694444444444,0,0,0.010850694444444444,26.671006944444443,0)" xlink:href="#I"/><use transform="matrix(0.010850694444444444,0,0,0.010850694444444444,40.006510416666664,0)" xlink:href="#F"/><use transform="matrix(0.010850694444444444,0,0,0.010850694444444444,53.342013888888886,0)" xlink:href="#u"/><use transform="matrix(0.010850694444444444,0,0,0.010850694444444444,66.67751736111111,0)" xlink:href="#m"/><use transform="matrix(0.010850694444444444,0,0,0.010850694444444444,80.01302083333334,0)" xlink:href="#B"/></g><g id="k"><use transform="matrix(0.010850694444444444,0,0,0.010850694444444444,0,0)" xlink:href="#C"/><use transform="matrix(0.010850694444444444,0,0,0.010850694444444444,13.335503472222221,0)" xlink:href="#z"/></g></defs></g></svg>