<?xml version="1.0" encoding="UTF-8"?>
<svg id="Layer_1" data-name="Layer 1" xmlns="http://www.w3.org/2000/svg" width="860" height="252" viewBox="0 0 860 252">
  <defs>
    <style>
      .cls-1 {
        fill: #220901;
      }

      .cls-2 {
        fill: #fc7853;
        fill-rule: evenodd;
      }
    </style>
  </defs>
  <g transform="rotate(0 300.1302373991179 236.15409611715404)">
    <path id="Layer_1-2" data-name="Layer_1" class="cls-2" d="M93.45,189.31c20.68-.27,35.94-5.5,45.52-15.53-6.39-3.73-12.87-7.37-19.26-11.09l2.22,1.86c1.69,1.33,2.13,3.73,1.06,5.59l-6.83,11.8c-3.73,.8-7.72,1.42-11.98,1.77l12.96-22.45-6.66-3.82-18.99,11-18.99,11v43.84l18.99,11,18.99,11,18.99-11,18.99-11v-24.85c-13.93,3.55-32.3,6.66-45.17,5.77l-8.34,14.38-8.25-4.7,6.66-11.54,.18,.09h0c-3.82-1.51-6.12-3.9-5.95-7.54,.35-3.19,2.84-5.59,5.86-5.59h0Zm-29.82-36.74c-8.61,11.27-17.39,31.06-18.37,49.96l13.31,12.51-13.4-7.72-10.38-6.03-28.22-16.24V64.99l52-29.99L110.57,5l52,29.99,52,29.99v119.98l-26.18,15.09-9.76,5.59-13.4,7.72,13.13-12.42c-1.6-27.95-6.83-58.92-22.72-78.98l-25.65,35.94,22.81-39.49,4.26-7.37,5.77-9.94,5.41,3.11,2.93-5.06c22.36,12.51,35.23,21.12,38.42,25.91-4.7-12.6-15.71-24.49-32.83-35.58l2.84-4.97-17.66-10.21-2.93,4.97c-3.19-1.6-6.48-3.19-10.03-4.79l-5.95,9.58,10.12,5.32-2.66,4.61,3.99,2.31-8.25,14.29c-4.88-5.15-10.29-9.58-16.06-13.22-2.57,1.51-7.54,5.32-10.38,6.3,14.46-14.73,18.99-31.41,12.96-52-17.13,3.19-30.35,16.86-33.1,34.08-23.52-2.48-56.26,4.17-68.24,27.24-1.15,2.13-1.6,4.53-1.15,7.19,1.77,11.18,35.05,29.99,48.36,33.63-4.08,.89-10.92,.09-15-1.24h0Zm14.2-46.59c0-4.79,3.9-8.79,8.79-8.79s8.79,3.9,8.79,8.79-3.9,8.79-8.79,8.79c-4.79-.09-8.79-3.99-8.79-8.79Zm23.43,97.97h-.27c-.35,0-.62-.09-.98-.09h0c.27,0,.62,.09,.98,.09h.27Zm-1.86-.27h-.18l-.27-.09h0l.27,.09h.18Zm-.89-.18h0Zm-1.86-.35h-.27l-.18-.09h0l.18,.09h.27Zm-.8-.18h0Z"/>
  </g>
  <g transform="rotate(0 287.50000732421876 423.11999893188477)">
    <path class="cls-1" d="M294.85,168.03l-7.84-5.76v-9.31h34.15c4.53,0,6.79-2.42,6.79-7.25h0c0-5.02-1.87-7.88-5.61-8.57h0l-16.56-2.65c-12.52-2.17-18.78-9.27-18.78-21.29h0c0-15.19,7.79-22.78,23.36-22.78h23.51l7.84,5.78v9.31h-30.61c-4.63,0-6.95,2.41-6.95,7.23h0c0,4.83,1.97,7.59,5.91,8.28h0l16.56,2.67c12.42,2.07,18.62,9.22,18.62,21.43h0c0,15.28-7.84,22.92-23.51,22.92h-26.9Zm86.93,29.57h-17.31V90.41h42.59c15.47,0,23.2,7.79,23.2,23.37h0v30.89c0,15.57-7.73,23.36-23.2,23.36h-25.28v29.57Zm0-92.11v47.46h24.39c4.54,0,6.81-2.26,6.81-6.79h0v-33.87c0-4.53-2.27-6.79-6.81-6.79h-24.39Zm68.9,36.81h0V58.62h17.29v85.46c0,6.41,3.26,9.86,9.77,10.36h0v14.92c-18.04,0-27.06-9.02-27.06-27.06Zm61.5-65.35h-18.18v-17.59h18.18v17.59Zm-.44,91.07h-17.31V90.41h17.31v77.62Zm39.48,0h-17.31V90.41h42.59c15.47,0,23.2,7.79,23.2,23.37h0v54.25h-17.29v-55.74c0-4.53-2.27-6.79-6.81-6.79h-24.39v62.53Zm69.49-23.36h0V66.03h17.29v24.39h26.47v15.09h-26.47v40.66c0,4.53,2.27,6.79,6.81,6.79h21.14v9.31l-7.84,5.76h-14.04c-15.57,0-23.36-7.79-23.36-23.36Zm60.47,0h0v-30.89c0-15.58,7.79-23.37,23.36-23.37h19.23c15.47,0,23.2,7.79,23.2,23.37h0v21.89h-48.49v10.49c0,4.53,2.26,6.79,6.79,6.79h38.73v9.31l-7.84,5.76h-31.64c-15.57,0-23.36-7.79-23.36-23.36Zm17.31-32.38v9.9h31.2v-9.9c0-4.53-2.27-6.79-6.81-6.79h-17.59c-4.53,0-6.79,2.26-6.79,6.79h0Zm86.19,55.74h-17.31V100.03c3.55-6.41,10.35-9.62,20.42-9.62h15.51l7.84,5.78v9.31h-19.37c-3.36,0-5.72,.83-7.1,2.5h0v60.03Z"/>
  </g>
</svg>